<?xml version="1.0" standalone="no"?><!DOCTYPE svg PUBLIC "-//W3C//DTD SVG 1.1//EN" "http://www.w3.org/Graphics/SVG/1.1/DTD/svg11.dtd"><svg t="1716112440345" class="icon" viewBox="0 0 1024 1024" version="1.1" xmlns="http://www.w3.org/2000/svg" p-id="3572" xmlns:xlink="http://www.w3.org/1999/xlink" width="200" height="200"><path d="M260.07 94.57h509.76A35.12 35.12 0 0 1 805 129.69v363.64H225V129.69a35.12 35.12 0 0 1 35.07-35.12z" fill="#DBCCAC" p-id="3573"></path><path d="M205.38 496.57h615.15A58.42 58.42 0 0 1 879 555v131.57H147V555a58.42 58.42 0 0 1 58.38-58.43z" fill="#AC8B73" p-id="3574"></path><path d="M899 555a78.52 78.52 0 0 0-74-78.29v-347a55.18 55.18 0 0 0-55.12-55.12H260.07a55.18 55.18 0 0 0-55.07 55.1v346.89A78.51 78.51 0 0 0 127 555v363.57a20 20 0 0 0 20 20 20 20 0 0 0 20-20v-212h112.47V846a20 20 0 0 0 20 20 20 20 0 0 0 20-20V706.57H707v131.9a20 20 0 0 0 20 20 20 20 0 0 0 20-20v-131.9h111.67v212a20 20 0 0 0 40 0v-212h0.33zM245 129.69a15.14 15.14 0 0 1 15.12-15.12h509.71A15.14 15.14 0 0 1 785 129.69v343.64H245zM167 555a38.47 38.47 0 0 1 38.42-38.42h615.11A38.47 38.47 0 0 1 859 555v111.57H167z" fill="#887262" p-id="3575"></path><path d="M645.02 556.67m-12 0a12 12 0 1 0 24 0 12 12 0 1 0-24 0Z" fill="#FFFFFF" p-id="3576"></path><path d="M838 586.34c-5.44-15.41-28.07-39.28-59.37-41.56-41.33-3-95.51 1.88-97.79 2.09a10 10 0 0 0 1.83 19.92c0.54 0 54.8-5 94.51-2.06 21.86 1.6 38.69 19 42 28.27a10 10 0 0 0 18.82-6.66z" fill="#FFFFFF" p-id="3577"></path></svg>